<svg xmlns="http://www.w3.org/2000/svg" xmlns:xlink="http://www.w3.org/1999/xlink" version="1.1" width="256" height="256" viewBox="0 0 256 256" xml:space="preserve">

<defs>
</defs>
<g style="stroke: none; stroke-width: 0; stroke-dasharray: none; stroke-linecap: butt; stroke-linejoin: miter; stroke-miterlimit: 10; fill: none; fill-rule: nonzero; opacity: 1;" transform="translate(1.4065934065934016 1.4065934065934016) scale(2.81 2.81)" >
	<circle cx="45" cy="45" r="45" style="stroke: none; stroke-width: 1; stroke-dasharray: none; stroke-linecap: butt; stroke-linejoin: miter; stroke-miterlimit: 10; fill: rgb(32,196,203); fill-rule: nonzero; opacity: 1;" transform="  matrix(1 0 0 1 0 0) "/>
	<path d="M 16.1 21.222 c -0.334 9.587 7.368 24.416 18.256 35.679 c -0.246 7.129 0.547 13.556 4.108 18.113 l 8.024 -8.024 l 0 0 l 7.69 -7.69 l 7.69 -7.69 v 0 l 7.994 -7.994 c -3.618 -3.676 -10.392 -4.301 -18.032 -4.088 C 40.562 28.613 25.702 20.887 16.1 21.222 z M 29.922 43.794 c -2.416 -2.416 -2.416 -6.334 0 -8.75 c 2.416 -2.416 6.334 -2.416 8.75 0 c 2.416 2.416 2.416 6.334 0 8.75 C 36.256 46.21 32.339 46.21 29.922 43.794 z" style="stroke: none; stroke-width: 1; stroke-dasharray: none; stroke-linecap: butt; stroke-linejoin: miter; stroke-miterlimit: 10; fill: rgb(27,167,173); fill-rule: nonzero; opacity: 1;" transform=" matrix(1 0 0 1 0 0) " stroke-linecap="round" />
	<path d="M 55.325 65.407 c 0.799 1.227 1.791 2.456 2.956 3.621 c 3.665 3.665 8.628 6.291 11.805 6.18 c 0.111 -3.177 -2.515 -8.14 -6.18 -11.805 c -1.165 -1.165 -2.394 -2.157 -3.621 -2.956 l -2.48 2.48 L 55.325 65.407 z" style="stroke: none; stroke-width: 1; stroke-dasharray: none; stroke-linecap: butt; stroke-linejoin: miter; stroke-miterlimit: 10; fill: rgb(27,167,173); fill-rule: nonzero; opacity: 1;" transform=" matrix(1 0 0 1 0 0) " stroke-linecap="round" />
	<path d="M 20.1 17.222 c -0.334 9.587 7.368 24.416 18.256 35.679 c -0.246 7.129 0.547 13.556 4.108 18.113 l 8.024 -8.024 l 0 0 l 7.69 -7.69 l 7.69 -7.69 v 0 l 7.994 -7.994 c -3.618 -3.676 -10.392 -4.301 -18.032 -4.088 C 44.562 24.613 29.702 16.887 20.1 17.222 z M 33.922 39.794 c -2.416 -2.416 -2.416 -6.334 0 -8.75 c 2.416 -2.416 6.334 -2.416 8.75 0 c 2.416 2.416 2.416 6.334 0 8.75 C 40.256 42.21 36.339 42.21 33.922 39.794 z" style="stroke: none; stroke-width: 1; stroke-dasharray: none; stroke-linecap: butt; stroke-linejoin: miter; stroke-miterlimit: 10; fill: rgb(255,255,255); fill-rule: nonzero; opacity: 1;" transform=" matrix(1 0 0 1 0 0) " stroke-linecap="round" />
	<path d="M 59.325 61.407 c 0.799 1.227 1.791 2.456 2.956 3.621 c 3.665 3.665 8.628 6.291 11.805 6.18 c 0.111 -3.177 -2.515 -8.14 -6.18 -11.805 c -1.165 -1.165 -2.394 -2.157 -3.621 -2.956 l -2.48 2.48 L 59.325 61.407 z" style="stroke: none; stroke-width: 1; stroke-dasharray: none; stroke-linecap: butt; stroke-linejoin: miter; stroke-miterlimit: 10; fill: rgb(255,255,255); fill-rule: nonzero; opacity: 1;" transform=" matrix(1 0 0 1 0 0) " stroke-linecap="round" />
</g>
</svg>